<?xml version="1.0" encoding="UTF-8"?>
<!DOCTYPE svg PUBLIC "-//W3C//DTD SVG 1.1//EN" "http://www.w3.org/Graphics/SVG/1.1/DTD/svg11.dtd">
<svg xmlns="http://www.w3.org/2000/svg" version="1.1" width="512px" height="512px" style="shape-rendering:geometricPrecision; text-rendering:geometricPrecision; image-rendering:optimizeQuality; fill-rule:evenodd; clip-rule:evenodd" xmlns:xlink="http://www.w3.org/1999/xlink">
<g><path style="opacity:0.988" fill="#000000" d="M 232.5,-0.5 C 247.833,-0.5 263.167,-0.5 278.5,-0.5C 362.758,9.30698 427.925,49.6403 474,120.5C 495.03,155.422 507.53,193.088 511.5,233.5C 511.5,248.5 511.5,263.5 511.5,278.5C 500.612,368.144 456.279,435.644 378.5,481C 347.029,497.695 313.696,507.861 278.5,511.5C 263.5,511.5 248.5,511.5 233.5,511.5C 133.193,499.016 61.693,447.016 19,355.5C 8.86452,330.623 2.36452,304.957 -0.5,278.5C -0.5,263.167 -0.5,247.833 -0.5,232.5C 10.7579,142.111 55.7579,74.2777 134.5,29C 165.483,13.1686 198.15,3.33531 232.5,-0.5 Z M 240.5,104.5 C 311.075,102.018 362.241,132.018 394,194.5C 397.667,187.833 401.333,181.167 405,174.5C 413.883,165.328 423.717,164.162 434.5,171C 441.548,177.478 443.715,185.311 441,194.5C 428.588,218.991 415.922,243.324 403,267.5C 392.403,278.578 380.903,279.411 368.5,270C 348.324,259.078 327.991,248.412 307.5,238C 293.239,226.47 292.906,214.47 306.5,202C 313.088,198.337 319.755,198.004 326.5,201C 335.833,206 345.167,211 354.5,216C 355.635,216.749 356.635,216.583 357.5,215.5C 338.053,171.102 304.053,148.102 255.5,146.5C 203.669,148.501 168.836,173.835 151,222.5C 137.766,276.482 153.933,318.982 199.5,350C 250.762,375.346 297.096,368.346 338.5,329C 351.43,324.383 360.93,328.216 367,340.5C 369.336,347.139 368.67,353.472 365,359.5C 322.722,401.282 272.555,415.115 214.5,401C 161.667,384.167 126.833,349.333 110,296.5C 95.641,235.589 111.141,183.756 156.5,141C 180.928,120.581 208.928,108.414 240.5,104.5 Z"/></g>
</svg>
